M48
; DRILL file {KiCad 7.0.6} date Sun Jul 30 22:11:06 2023
; FORMAT={-:-/ absolute / inch / decimal}
; #@! TF.CreationDate,2023-07-30T22:11:06+02:00
; #@! TF.GenerationSoftware,Kicad,Pcbnew,7.0.6
; #@! TF.FileFunction,Plated,1,2,PTH
FMAT,2
INCH
; #@! TA.AperFunction,Plated,PTH,ViaDrill
T1C0.0157
; #@! TA.AperFunction,Plated,PTH,ComponentDrill
T2C0.0276
; #@! TA.AperFunction,Plated,PTH,ComponentDrill
T3C0.0579
%
G90
G05
T1
X2.351Y-2.586
X2.494Y-2.1617
T3
X3.3453Y-2.5887
X3.35Y-1.8375
X3.35Y-3.3375
X3.3969Y-2.5312
X3.4016Y-1.78
X3.4016Y-3.28
X3.5938Y-2.5116
X3.5953Y-2.4887
X3.5984Y-1.7603
X3.5984Y-3.2603
X3.6Y-1.7375
X3.6Y-3.2375
X4.1Y-1.8375
X4.1Y-2.5875
X4.1Y-3.3375
X4.1516Y-1.78
X4.1516Y-2.53
X4.1516Y-3.28
X4.3484Y-1.7603
X4.3484Y-2.5103
X4.3484Y-3.2603
X4.35Y-1.7375
X4.35Y-2.4875
X4.35Y-3.2375
X4.85Y-1.8375
X4.85Y-2.5875
X4.85Y-3.3375
X4.9016Y-1.78
X4.9016Y-2.53
X4.9016Y-3.28
X5.0984Y-1.7603
X5.0984Y-2.5103
X5.0984Y-3.2603
X5.1Y-1.7375
X5.1Y-2.4875
X5.1Y-3.2375
T2
G00X2.5438Y-1.6107
M15
G01X2.5438Y-1.658
M16
G05
G00X2.5438Y-1.7879
M15
G01X2.5438Y-1.8351
M16
G05
G00X2.8312Y-1.6107
M15
G01X2.8312Y-1.658
M16
G05
G00X2.8312Y-1.7879
M15
G01X2.8312Y-1.8351
M16
G05
T0
M30
