%TF.GenerationSoftware,KiCad,Pcbnew,7.0.6*%
%TF.CreationDate,2023-07-30T22:10:22+02:00*%
%TF.ProjectId,Macropad,4d616372-6f70-4616-942e-6b696361645f,rev?*%
%TF.SameCoordinates,Original*%
%TF.FileFunction,Legend,Top*%
%TF.FilePolarity,Positive*%
%FSLAX46Y46*%
G04 Gerber Fmt 4.6, Leading zero omitted, Abs format (unit mm)*
G04 Created by KiCad (PCBNEW 7.0.6) date 2023-07-30 22:10:22*
%MOMM*%
%LPD*%
G01*
G04 APERTURE LIST*
%ADD10C,0.150000*%
%ADD11C,0.120000*%
G04 APERTURE END LIST*
D10*
X57180400Y-81344532D02*
X57228019Y-81201675D01*
X57228019Y-81201675D02*
X57228019Y-80963580D01*
X57228019Y-80963580D02*
X57180400Y-80868342D01*
X57180400Y-80868342D02*
X57132780Y-80820723D01*
X57132780Y-80820723D02*
X57037542Y-80773104D01*
X57037542Y-80773104D02*
X56942304Y-80773104D01*
X56942304Y-80773104D02*
X56847066Y-80820723D01*
X56847066Y-80820723D02*
X56799447Y-80868342D01*
X56799447Y-80868342D02*
X56751828Y-80963580D01*
X56751828Y-80963580D02*
X56704209Y-81154056D01*
X56704209Y-81154056D02*
X56656590Y-81249294D01*
X56656590Y-81249294D02*
X56608971Y-81296913D01*
X56608971Y-81296913D02*
X56513733Y-81344532D01*
X56513733Y-81344532D02*
X56418495Y-81344532D01*
X56418495Y-81344532D02*
X56323257Y-81296913D01*
X56323257Y-81296913D02*
X56275638Y-81249294D01*
X56275638Y-81249294D02*
X56228019Y-81154056D01*
X56228019Y-81154056D02*
X56228019Y-80915961D01*
X56228019Y-80915961D02*
X56275638Y-80773104D01*
X56228019Y-80439770D02*
X57228019Y-80201675D01*
X57228019Y-80201675D02*
X56513733Y-80011199D01*
X56513733Y-80011199D02*
X57228019Y-79820723D01*
X57228019Y-79820723D02*
X56228019Y-79582628D01*
X57228019Y-78677866D02*
X57228019Y-79249294D01*
X57228019Y-78963580D02*
X56228019Y-78963580D01*
X56228019Y-78963580D02*
X56370876Y-79058818D01*
X56370876Y-79058818D02*
X56466114Y-79154056D01*
X56466114Y-79154056D02*
X56513733Y-79249294D01*
X64995219Y-53049466D02*
X64519028Y-53382799D01*
X64995219Y-53620894D02*
X63995219Y-53620894D01*
X63995219Y-53620894D02*
X63995219Y-53239942D01*
X63995219Y-53239942D02*
X64042838Y-53144704D01*
X64042838Y-53144704D02*
X64090457Y-53097085D01*
X64090457Y-53097085D02*
X64185695Y-53049466D01*
X64185695Y-53049466D02*
X64328552Y-53049466D01*
X64328552Y-53049466D02*
X64423790Y-53097085D01*
X64423790Y-53097085D02*
X64471409Y-53144704D01*
X64471409Y-53144704D02*
X64519028Y-53239942D01*
X64519028Y-53239942D02*
X64519028Y-53620894D01*
X63995219Y-52716132D02*
X63995219Y-52097085D01*
X63995219Y-52097085D02*
X64376171Y-52430418D01*
X64376171Y-52430418D02*
X64376171Y-52287561D01*
X64376171Y-52287561D02*
X64423790Y-52192323D01*
X64423790Y-52192323D02*
X64471409Y-52144704D01*
X64471409Y-52144704D02*
X64566647Y-52097085D01*
X64566647Y-52097085D02*
X64804742Y-52097085D01*
X64804742Y-52097085D02*
X64899980Y-52144704D01*
X64899980Y-52144704D02*
X64947600Y-52192323D01*
X64947600Y-52192323D02*
X64995219Y-52287561D01*
X64995219Y-52287561D02*
X64995219Y-52573275D01*
X64995219Y-52573275D02*
X64947600Y-52668513D01*
X64947600Y-52668513D02*
X64899980Y-52716132D01*
X66524405Y-42999319D02*
X66524405Y-43808842D01*
X66524405Y-43808842D02*
X66572024Y-43904080D01*
X66572024Y-43904080D02*
X66619643Y-43951700D01*
X66619643Y-43951700D02*
X66714881Y-43999319D01*
X66714881Y-43999319D02*
X66905357Y-43999319D01*
X66905357Y-43999319D02*
X67000595Y-43951700D01*
X67000595Y-43951700D02*
X67048214Y-43904080D01*
X67048214Y-43904080D02*
X67095833Y-43808842D01*
X67095833Y-43808842D02*
X67095833Y-42999319D01*
X67524405Y-43951700D02*
X67667262Y-43999319D01*
X67667262Y-43999319D02*
X67905357Y-43999319D01*
X67905357Y-43999319D02*
X68000595Y-43951700D01*
X68000595Y-43951700D02*
X68048214Y-43904080D01*
X68048214Y-43904080D02*
X68095833Y-43808842D01*
X68095833Y-43808842D02*
X68095833Y-43713604D01*
X68095833Y-43713604D02*
X68048214Y-43618366D01*
X68048214Y-43618366D02*
X68000595Y-43570747D01*
X68000595Y-43570747D02*
X67905357Y-43523128D01*
X67905357Y-43523128D02*
X67714881Y-43475509D01*
X67714881Y-43475509D02*
X67619643Y-43427890D01*
X67619643Y-43427890D02*
X67572024Y-43380271D01*
X67572024Y-43380271D02*
X67524405Y-43285033D01*
X67524405Y-43285033D02*
X67524405Y-43189795D01*
X67524405Y-43189795D02*
X67572024Y-43094557D01*
X67572024Y-43094557D02*
X67619643Y-43046938D01*
X67619643Y-43046938D02*
X67714881Y-42999319D01*
X67714881Y-42999319D02*
X67952976Y-42999319D01*
X67952976Y-42999319D02*
X68095833Y-43046938D01*
X68857738Y-43475509D02*
X69000595Y-43523128D01*
X69000595Y-43523128D02*
X69048214Y-43570747D01*
X69048214Y-43570747D02*
X69095833Y-43665985D01*
X69095833Y-43665985D02*
X69095833Y-43808842D01*
X69095833Y-43808842D02*
X69048214Y-43904080D01*
X69048214Y-43904080D02*
X69000595Y-43951700D01*
X69000595Y-43951700D02*
X68905357Y-43999319D01*
X68905357Y-43999319D02*
X68524405Y-43999319D01*
X68524405Y-43999319D02*
X68524405Y-42999319D01*
X68524405Y-42999319D02*
X68857738Y-42999319D01*
X68857738Y-42999319D02*
X68952976Y-43046938D01*
X68952976Y-43046938D02*
X69000595Y-43094557D01*
X69000595Y-43094557D02*
X69048214Y-43189795D01*
X69048214Y-43189795D02*
X69048214Y-43285033D01*
X69048214Y-43285033D02*
X69000595Y-43380271D01*
X69000595Y-43380271D02*
X68952976Y-43427890D01*
X68952976Y-43427890D02*
X68857738Y-43475509D01*
X68857738Y-43475509D02*
X68524405Y-43475509D01*
X70048214Y-43999319D02*
X69476786Y-43999319D01*
X69762500Y-43999319D02*
X69762500Y-42999319D01*
X69762500Y-42999319D02*
X69667262Y-43142176D01*
X69667262Y-43142176D02*
X69572024Y-43237414D01*
X69572024Y-43237414D02*
X69476786Y-43285033D01*
X68150595Y-55473569D02*
X68150595Y-56283092D01*
X68150595Y-56283092D02*
X68198214Y-56378330D01*
X68198214Y-56378330D02*
X68245833Y-56425950D01*
X68245833Y-56425950D02*
X68341071Y-56473569D01*
X68341071Y-56473569D02*
X68531547Y-56473569D01*
X68531547Y-56473569D02*
X68626785Y-56425950D01*
X68626785Y-56425950D02*
X68674404Y-56378330D01*
X68674404Y-56378330D02*
X68722023Y-56283092D01*
X68722023Y-56283092D02*
X68722023Y-55473569D01*
X69722023Y-56473569D02*
X69150595Y-56473569D01*
X69436309Y-56473569D02*
X69436309Y-55473569D01*
X69436309Y-55473569D02*
X69341071Y-55616426D01*
X69341071Y-55616426D02*
X69245833Y-55711664D01*
X69245833Y-55711664D02*
X69150595Y-55759283D01*
X61201633Y-75307619D02*
X60868300Y-74831428D01*
X60630205Y-75307619D02*
X60630205Y-74307619D01*
X60630205Y-74307619D02*
X61011157Y-74307619D01*
X61011157Y-74307619D02*
X61106395Y-74355238D01*
X61106395Y-74355238D02*
X61154014Y-74402857D01*
X61154014Y-74402857D02*
X61201633Y-74498095D01*
X61201633Y-74498095D02*
X61201633Y-74640952D01*
X61201633Y-74640952D02*
X61154014Y-74736190D01*
X61154014Y-74736190D02*
X61106395Y-74783809D01*
X61106395Y-74783809D02*
X61011157Y-74831428D01*
X61011157Y-74831428D02*
X60630205Y-74831428D01*
X62058776Y-74640952D02*
X62058776Y-75307619D01*
X61820681Y-74260000D02*
X61582586Y-74974285D01*
X61582586Y-74974285D02*
X62201633Y-74974285D01*
X61744019Y-53047566D02*
X61267828Y-53380899D01*
X61744019Y-53618994D02*
X60744019Y-53618994D01*
X60744019Y-53618994D02*
X60744019Y-53238042D01*
X60744019Y-53238042D02*
X60791638Y-53142804D01*
X60791638Y-53142804D02*
X60839257Y-53095185D01*
X60839257Y-53095185D02*
X60934495Y-53047566D01*
X60934495Y-53047566D02*
X61077352Y-53047566D01*
X61077352Y-53047566D02*
X61172590Y-53095185D01*
X61172590Y-53095185D02*
X61220209Y-53142804D01*
X61220209Y-53142804D02*
X61267828Y-53238042D01*
X61267828Y-53238042D02*
X61267828Y-53618994D01*
X60839257Y-52666613D02*
X60791638Y-52618994D01*
X60791638Y-52618994D02*
X60744019Y-52523756D01*
X60744019Y-52523756D02*
X60744019Y-52285661D01*
X60744019Y-52285661D02*
X60791638Y-52190423D01*
X60791638Y-52190423D02*
X60839257Y-52142804D01*
X60839257Y-52142804D02*
X60934495Y-52095185D01*
X60934495Y-52095185D02*
X61029733Y-52095185D01*
X61029733Y-52095185D02*
X61172590Y-52142804D01*
X61172590Y-52142804D02*
X61744019Y-52714232D01*
X61744019Y-52714232D02*
X61744019Y-52095185D01*
X76448569Y-56959166D02*
X75972378Y-57292499D01*
X76448569Y-57530594D02*
X75448569Y-57530594D01*
X75448569Y-57530594D02*
X75448569Y-57149642D01*
X75448569Y-57149642D02*
X75496188Y-57054404D01*
X75496188Y-57054404D02*
X75543807Y-57006785D01*
X75543807Y-57006785D02*
X75639045Y-56959166D01*
X75639045Y-56959166D02*
X75781902Y-56959166D01*
X75781902Y-56959166D02*
X75877140Y-57006785D01*
X75877140Y-57006785D02*
X75924759Y-57054404D01*
X75924759Y-57054404D02*
X75972378Y-57149642D01*
X75972378Y-57149642D02*
X75972378Y-57530594D01*
X76448569Y-56006785D02*
X76448569Y-56578213D01*
X76448569Y-56292499D02*
X75448569Y-56292499D01*
X75448569Y-56292499D02*
X75591426Y-56387737D01*
X75591426Y-56387737D02*
X75686664Y-56482975D01*
X75686664Y-56482975D02*
X75734283Y-56578213D01*
X72109009Y-53244533D02*
X72109009Y-53577866D01*
X72632819Y-53577866D02*
X71632819Y-53577866D01*
X71632819Y-53577866D02*
X71632819Y-53101676D01*
X72632819Y-52196914D02*
X72632819Y-52768342D01*
X72632819Y-52482628D02*
X71632819Y-52482628D01*
X71632819Y-52482628D02*
X71775676Y-52577866D01*
X71775676Y-52577866D02*
X71870914Y-52673104D01*
X71870914Y-52673104D02*
X71918533Y-52768342D01*
X133392319Y-88050594D02*
X132392319Y-88050594D01*
X132392319Y-88050594D02*
X132392319Y-87812499D01*
X132392319Y-87812499D02*
X132439938Y-87669642D01*
X132439938Y-87669642D02*
X132535176Y-87574404D01*
X132535176Y-87574404D02*
X132630414Y-87526785D01*
X132630414Y-87526785D02*
X132820890Y-87479166D01*
X132820890Y-87479166D02*
X132963747Y-87479166D01*
X132963747Y-87479166D02*
X133154223Y-87526785D01*
X133154223Y-87526785D02*
X133249461Y-87574404D01*
X133249461Y-87574404D02*
X133344700Y-87669642D01*
X133344700Y-87669642D02*
X133392319Y-87812499D01*
X133392319Y-87812499D02*
X133392319Y-88050594D01*
X133392319Y-87002975D02*
X133392319Y-86812499D01*
X133392319Y-86812499D02*
X133344700Y-86717261D01*
X133344700Y-86717261D02*
X133297080Y-86669642D01*
X133297080Y-86669642D02*
X133154223Y-86574404D01*
X133154223Y-86574404D02*
X132963747Y-86526785D01*
X132963747Y-86526785D02*
X132582795Y-86526785D01*
X132582795Y-86526785D02*
X132487557Y-86574404D01*
X132487557Y-86574404D02*
X132439938Y-86622023D01*
X132439938Y-86622023D02*
X132392319Y-86717261D01*
X132392319Y-86717261D02*
X132392319Y-86907737D01*
X132392319Y-86907737D02*
X132439938Y-87002975D01*
X132439938Y-87002975D02*
X132487557Y-87050594D01*
X132487557Y-87050594D02*
X132582795Y-87098213D01*
X132582795Y-87098213D02*
X132820890Y-87098213D01*
X132820890Y-87098213D02*
X132916128Y-87050594D01*
X132916128Y-87050594D02*
X132963747Y-87002975D01*
X132963747Y-87002975D02*
X133011366Y-86907737D01*
X133011366Y-86907737D02*
X133011366Y-86717261D01*
X133011366Y-86717261D02*
X132963747Y-86622023D01*
X132963747Y-86622023D02*
X132916128Y-86574404D01*
X132916128Y-86574404D02*
X132820890Y-86526785D01*
X114342319Y-88050594D02*
X113342319Y-88050594D01*
X113342319Y-88050594D02*
X113342319Y-87812499D01*
X113342319Y-87812499D02*
X113389938Y-87669642D01*
X113389938Y-87669642D02*
X113485176Y-87574404D01*
X113485176Y-87574404D02*
X113580414Y-87526785D01*
X113580414Y-87526785D02*
X113770890Y-87479166D01*
X113770890Y-87479166D02*
X113913747Y-87479166D01*
X113913747Y-87479166D02*
X114104223Y-87526785D01*
X114104223Y-87526785D02*
X114199461Y-87574404D01*
X114199461Y-87574404D02*
X114294700Y-87669642D01*
X114294700Y-87669642D02*
X114342319Y-87812499D01*
X114342319Y-87812499D02*
X114342319Y-88050594D01*
X113770890Y-86907737D02*
X113723271Y-87002975D01*
X113723271Y-87002975D02*
X113675652Y-87050594D01*
X113675652Y-87050594D02*
X113580414Y-87098213D01*
X113580414Y-87098213D02*
X113532795Y-87098213D01*
X113532795Y-87098213D02*
X113437557Y-87050594D01*
X113437557Y-87050594D02*
X113389938Y-87002975D01*
X113389938Y-87002975D02*
X113342319Y-86907737D01*
X113342319Y-86907737D02*
X113342319Y-86717261D01*
X113342319Y-86717261D02*
X113389938Y-86622023D01*
X113389938Y-86622023D02*
X113437557Y-86574404D01*
X113437557Y-86574404D02*
X113532795Y-86526785D01*
X113532795Y-86526785D02*
X113580414Y-86526785D01*
X113580414Y-86526785D02*
X113675652Y-86574404D01*
X113675652Y-86574404D02*
X113723271Y-86622023D01*
X113723271Y-86622023D02*
X113770890Y-86717261D01*
X113770890Y-86717261D02*
X113770890Y-86907737D01*
X113770890Y-86907737D02*
X113818509Y-87002975D01*
X113818509Y-87002975D02*
X113866128Y-87050594D01*
X113866128Y-87050594D02*
X113961366Y-87098213D01*
X113961366Y-87098213D02*
X114151842Y-87098213D01*
X114151842Y-87098213D02*
X114247080Y-87050594D01*
X114247080Y-87050594D02*
X114294700Y-87002975D01*
X114294700Y-87002975D02*
X114342319Y-86907737D01*
X114342319Y-86907737D02*
X114342319Y-86717261D01*
X114342319Y-86717261D02*
X114294700Y-86622023D01*
X114294700Y-86622023D02*
X114247080Y-86574404D01*
X114247080Y-86574404D02*
X114151842Y-86526785D01*
X114151842Y-86526785D02*
X113961366Y-86526785D01*
X113961366Y-86526785D02*
X113866128Y-86574404D01*
X113866128Y-86574404D02*
X113818509Y-86622023D01*
X113818509Y-86622023D02*
X113770890Y-86717261D01*
X95292319Y-88050594D02*
X94292319Y-88050594D01*
X94292319Y-88050594D02*
X94292319Y-87812499D01*
X94292319Y-87812499D02*
X94339938Y-87669642D01*
X94339938Y-87669642D02*
X94435176Y-87574404D01*
X94435176Y-87574404D02*
X94530414Y-87526785D01*
X94530414Y-87526785D02*
X94720890Y-87479166D01*
X94720890Y-87479166D02*
X94863747Y-87479166D01*
X94863747Y-87479166D02*
X95054223Y-87526785D01*
X95054223Y-87526785D02*
X95149461Y-87574404D01*
X95149461Y-87574404D02*
X95244700Y-87669642D01*
X95244700Y-87669642D02*
X95292319Y-87812499D01*
X95292319Y-87812499D02*
X95292319Y-88050594D01*
X94292319Y-87145832D02*
X94292319Y-86479166D01*
X94292319Y-86479166D02*
X95292319Y-86907737D01*
X133392319Y-69000594D02*
X132392319Y-69000594D01*
X132392319Y-69000594D02*
X132392319Y-68762499D01*
X132392319Y-68762499D02*
X132439938Y-68619642D01*
X132439938Y-68619642D02*
X132535176Y-68524404D01*
X132535176Y-68524404D02*
X132630414Y-68476785D01*
X132630414Y-68476785D02*
X132820890Y-68429166D01*
X132820890Y-68429166D02*
X132963747Y-68429166D01*
X132963747Y-68429166D02*
X133154223Y-68476785D01*
X133154223Y-68476785D02*
X133249461Y-68524404D01*
X133249461Y-68524404D02*
X133344700Y-68619642D01*
X133344700Y-68619642D02*
X133392319Y-68762499D01*
X133392319Y-68762499D02*
X133392319Y-69000594D01*
X132392319Y-67572023D02*
X132392319Y-67762499D01*
X132392319Y-67762499D02*
X132439938Y-67857737D01*
X132439938Y-67857737D02*
X132487557Y-67905356D01*
X132487557Y-67905356D02*
X132630414Y-68000594D01*
X132630414Y-68000594D02*
X132820890Y-68048213D01*
X132820890Y-68048213D02*
X133201842Y-68048213D01*
X133201842Y-68048213D02*
X133297080Y-68000594D01*
X133297080Y-68000594D02*
X133344700Y-67952975D01*
X133344700Y-67952975D02*
X133392319Y-67857737D01*
X133392319Y-67857737D02*
X133392319Y-67667261D01*
X133392319Y-67667261D02*
X133344700Y-67572023D01*
X133344700Y-67572023D02*
X133297080Y-67524404D01*
X133297080Y-67524404D02*
X133201842Y-67476785D01*
X133201842Y-67476785D02*
X132963747Y-67476785D01*
X132963747Y-67476785D02*
X132868509Y-67524404D01*
X132868509Y-67524404D02*
X132820890Y-67572023D01*
X132820890Y-67572023D02*
X132773271Y-67667261D01*
X132773271Y-67667261D02*
X132773271Y-67857737D01*
X132773271Y-67857737D02*
X132820890Y-67952975D01*
X132820890Y-67952975D02*
X132868509Y-68000594D01*
X132868509Y-68000594D02*
X132963747Y-68048213D01*
X114342319Y-69000594D02*
X113342319Y-69000594D01*
X113342319Y-69000594D02*
X113342319Y-68762499D01*
X113342319Y-68762499D02*
X113389938Y-68619642D01*
X113389938Y-68619642D02*
X113485176Y-68524404D01*
X113485176Y-68524404D02*
X113580414Y-68476785D01*
X113580414Y-68476785D02*
X113770890Y-68429166D01*
X113770890Y-68429166D02*
X113913747Y-68429166D01*
X113913747Y-68429166D02*
X114104223Y-68476785D01*
X114104223Y-68476785D02*
X114199461Y-68524404D01*
X114199461Y-68524404D02*
X114294700Y-68619642D01*
X114294700Y-68619642D02*
X114342319Y-68762499D01*
X114342319Y-68762499D02*
X114342319Y-69000594D01*
X113342319Y-67524404D02*
X113342319Y-68000594D01*
X113342319Y-68000594D02*
X113818509Y-68048213D01*
X113818509Y-68048213D02*
X113770890Y-68000594D01*
X113770890Y-68000594D02*
X113723271Y-67905356D01*
X113723271Y-67905356D02*
X113723271Y-67667261D01*
X113723271Y-67667261D02*
X113770890Y-67572023D01*
X113770890Y-67572023D02*
X113818509Y-67524404D01*
X113818509Y-67524404D02*
X113913747Y-67476785D01*
X113913747Y-67476785D02*
X114151842Y-67476785D01*
X114151842Y-67476785D02*
X114247080Y-67524404D01*
X114247080Y-67524404D02*
X114294700Y-67572023D01*
X114294700Y-67572023D02*
X114342319Y-67667261D01*
X114342319Y-67667261D02*
X114342319Y-67905356D01*
X114342319Y-67905356D02*
X114294700Y-68000594D01*
X114294700Y-68000594D02*
X114247080Y-68048213D01*
X95292319Y-68938094D02*
X94292319Y-68938094D01*
X94292319Y-68938094D02*
X94292319Y-68699999D01*
X94292319Y-68699999D02*
X94339938Y-68557142D01*
X94339938Y-68557142D02*
X94435176Y-68461904D01*
X94435176Y-68461904D02*
X94530414Y-68414285D01*
X94530414Y-68414285D02*
X94720890Y-68366666D01*
X94720890Y-68366666D02*
X94863747Y-68366666D01*
X94863747Y-68366666D02*
X95054223Y-68414285D01*
X95054223Y-68414285D02*
X95149461Y-68461904D01*
X95149461Y-68461904D02*
X95244700Y-68557142D01*
X95244700Y-68557142D02*
X95292319Y-68699999D01*
X95292319Y-68699999D02*
X95292319Y-68938094D01*
X94625652Y-67509523D02*
X95292319Y-67509523D01*
X94244700Y-67747618D02*
X94958985Y-67985713D01*
X94958985Y-67985713D02*
X94958985Y-67366666D01*
X133392319Y-49950594D02*
X132392319Y-49950594D01*
X132392319Y-49950594D02*
X132392319Y-49712499D01*
X132392319Y-49712499D02*
X132439938Y-49569642D01*
X132439938Y-49569642D02*
X132535176Y-49474404D01*
X132535176Y-49474404D02*
X132630414Y-49426785D01*
X132630414Y-49426785D02*
X132820890Y-49379166D01*
X132820890Y-49379166D02*
X132963747Y-49379166D01*
X132963747Y-49379166D02*
X133154223Y-49426785D01*
X133154223Y-49426785D02*
X133249461Y-49474404D01*
X133249461Y-49474404D02*
X133344700Y-49569642D01*
X133344700Y-49569642D02*
X133392319Y-49712499D01*
X133392319Y-49712499D02*
X133392319Y-49950594D01*
X132392319Y-49045832D02*
X132392319Y-48426785D01*
X132392319Y-48426785D02*
X132773271Y-48760118D01*
X132773271Y-48760118D02*
X132773271Y-48617261D01*
X132773271Y-48617261D02*
X132820890Y-48522023D01*
X132820890Y-48522023D02*
X132868509Y-48474404D01*
X132868509Y-48474404D02*
X132963747Y-48426785D01*
X132963747Y-48426785D02*
X133201842Y-48426785D01*
X133201842Y-48426785D02*
X133297080Y-48474404D01*
X133297080Y-48474404D02*
X133344700Y-48522023D01*
X133344700Y-48522023D02*
X133392319Y-48617261D01*
X133392319Y-48617261D02*
X133392319Y-48902975D01*
X133392319Y-48902975D02*
X133344700Y-48998213D01*
X133344700Y-48998213D02*
X133297080Y-49045832D01*
X114342319Y-49950594D02*
X113342319Y-49950594D01*
X113342319Y-49950594D02*
X113342319Y-49712499D01*
X113342319Y-49712499D02*
X113389938Y-49569642D01*
X113389938Y-49569642D02*
X113485176Y-49474404D01*
X113485176Y-49474404D02*
X113580414Y-49426785D01*
X113580414Y-49426785D02*
X113770890Y-49379166D01*
X113770890Y-49379166D02*
X113913747Y-49379166D01*
X113913747Y-49379166D02*
X114104223Y-49426785D01*
X114104223Y-49426785D02*
X114199461Y-49474404D01*
X114199461Y-49474404D02*
X114294700Y-49569642D01*
X114294700Y-49569642D02*
X114342319Y-49712499D01*
X114342319Y-49712499D02*
X114342319Y-49950594D01*
X113437557Y-48998213D02*
X113389938Y-48950594D01*
X113389938Y-48950594D02*
X113342319Y-48855356D01*
X113342319Y-48855356D02*
X113342319Y-48617261D01*
X113342319Y-48617261D02*
X113389938Y-48522023D01*
X113389938Y-48522023D02*
X113437557Y-48474404D01*
X113437557Y-48474404D02*
X113532795Y-48426785D01*
X113532795Y-48426785D02*
X113628033Y-48426785D01*
X113628033Y-48426785D02*
X113770890Y-48474404D01*
X113770890Y-48474404D02*
X114342319Y-49045832D01*
X114342319Y-49045832D02*
X114342319Y-48426785D01*
X95292319Y-49950594D02*
X94292319Y-49950594D01*
X94292319Y-49950594D02*
X94292319Y-49712499D01*
X94292319Y-49712499D02*
X94339938Y-49569642D01*
X94339938Y-49569642D02*
X94435176Y-49474404D01*
X94435176Y-49474404D02*
X94530414Y-49426785D01*
X94530414Y-49426785D02*
X94720890Y-49379166D01*
X94720890Y-49379166D02*
X94863747Y-49379166D01*
X94863747Y-49379166D02*
X95054223Y-49426785D01*
X95054223Y-49426785D02*
X95149461Y-49474404D01*
X95149461Y-49474404D02*
X95244700Y-49569642D01*
X95244700Y-49569642D02*
X95292319Y-49712499D01*
X95292319Y-49712499D02*
X95292319Y-49950594D01*
X95292319Y-48426785D02*
X95292319Y-48998213D01*
X95292319Y-48712499D02*
X94292319Y-48712499D01*
X94292319Y-48712499D02*
X94435176Y-48807737D01*
X94435176Y-48807737D02*
X94530414Y-48902975D01*
X94530414Y-48902975D02*
X94578033Y-48998213D01*
X79712780Y-52404266D02*
X79760400Y-52451885D01*
X79760400Y-52451885D02*
X79808019Y-52594742D01*
X79808019Y-52594742D02*
X79808019Y-52689980D01*
X79808019Y-52689980D02*
X79760400Y-52832837D01*
X79760400Y-52832837D02*
X79665161Y-52928075D01*
X79665161Y-52928075D02*
X79569923Y-52975694D01*
X79569923Y-52975694D02*
X79379447Y-53023313D01*
X79379447Y-53023313D02*
X79236590Y-53023313D01*
X79236590Y-53023313D02*
X79046114Y-52975694D01*
X79046114Y-52975694D02*
X78950876Y-52928075D01*
X78950876Y-52928075D02*
X78855638Y-52832837D01*
X78855638Y-52832837D02*
X78808019Y-52689980D01*
X78808019Y-52689980D02*
X78808019Y-52594742D01*
X78808019Y-52594742D02*
X78855638Y-52451885D01*
X78855638Y-52451885D02*
X78903257Y-52404266D01*
X78808019Y-51499504D02*
X78808019Y-51975694D01*
X78808019Y-51975694D02*
X79284209Y-52023313D01*
X79284209Y-52023313D02*
X79236590Y-51975694D01*
X79236590Y-51975694D02*
X79188971Y-51880456D01*
X79188971Y-51880456D02*
X79188971Y-51642361D01*
X79188971Y-51642361D02*
X79236590Y-51547123D01*
X79236590Y-51547123D02*
X79284209Y-51499504D01*
X79284209Y-51499504D02*
X79379447Y-51451885D01*
X79379447Y-51451885D02*
X79617542Y-51451885D01*
X79617542Y-51451885D02*
X79712780Y-51499504D01*
X79712780Y-51499504D02*
X79760400Y-51547123D01*
X79760400Y-51547123D02*
X79808019Y-51642361D01*
X79808019Y-51642361D02*
X79808019Y-51880456D01*
X79808019Y-51880456D02*
X79760400Y-51975694D01*
X79760400Y-51975694D02*
X79712780Y-52023313D01*
X75997733Y-75648780D02*
X75950114Y-75696400D01*
X75950114Y-75696400D02*
X75807257Y-75744019D01*
X75807257Y-75744019D02*
X75712019Y-75744019D01*
X75712019Y-75744019D02*
X75569162Y-75696400D01*
X75569162Y-75696400D02*
X75473924Y-75601161D01*
X75473924Y-75601161D02*
X75426305Y-75505923D01*
X75426305Y-75505923D02*
X75378686Y-75315447D01*
X75378686Y-75315447D02*
X75378686Y-75172590D01*
X75378686Y-75172590D02*
X75426305Y-74982114D01*
X75426305Y-74982114D02*
X75473924Y-74886876D01*
X75473924Y-74886876D02*
X75569162Y-74791638D01*
X75569162Y-74791638D02*
X75712019Y-74744019D01*
X75712019Y-74744019D02*
X75807257Y-74744019D01*
X75807257Y-74744019D02*
X75950114Y-74791638D01*
X75950114Y-74791638D02*
X75997733Y-74839257D01*
X76854876Y-75077352D02*
X76854876Y-75744019D01*
X76616781Y-74696400D02*
X76378686Y-75410685D01*
X76378686Y-75410685D02*
X76997733Y-75410685D01*
X58064780Y-68121866D02*
X58112400Y-68169485D01*
X58112400Y-68169485D02*
X58160019Y-68312342D01*
X58160019Y-68312342D02*
X58160019Y-68407580D01*
X58160019Y-68407580D02*
X58112400Y-68550437D01*
X58112400Y-68550437D02*
X58017161Y-68645675D01*
X58017161Y-68645675D02*
X57921923Y-68693294D01*
X57921923Y-68693294D02*
X57731447Y-68740913D01*
X57731447Y-68740913D02*
X57588590Y-68740913D01*
X57588590Y-68740913D02*
X57398114Y-68693294D01*
X57398114Y-68693294D02*
X57302876Y-68645675D01*
X57302876Y-68645675D02*
X57207638Y-68550437D01*
X57207638Y-68550437D02*
X57160019Y-68407580D01*
X57160019Y-68407580D02*
X57160019Y-68312342D01*
X57160019Y-68312342D02*
X57207638Y-68169485D01*
X57207638Y-68169485D02*
X57255257Y-68121866D01*
X57160019Y-67788532D02*
X57160019Y-67169485D01*
X57160019Y-67169485D02*
X57540971Y-67502818D01*
X57540971Y-67502818D02*
X57540971Y-67359961D01*
X57540971Y-67359961D02*
X57588590Y-67264723D01*
X57588590Y-67264723D02*
X57636209Y-67217104D01*
X57636209Y-67217104D02*
X57731447Y-67169485D01*
X57731447Y-67169485D02*
X57969542Y-67169485D01*
X57969542Y-67169485D02*
X58064780Y-67217104D01*
X58064780Y-67217104D02*
X58112400Y-67264723D01*
X58112400Y-67264723D02*
X58160019Y-67359961D01*
X58160019Y-67359961D02*
X58160019Y-67645675D01*
X58160019Y-67645675D02*
X58112400Y-67740913D01*
X58112400Y-67740913D02*
X58064780Y-67788532D01*
X68739980Y-53034266D02*
X68787600Y-53081885D01*
X68787600Y-53081885D02*
X68835219Y-53224742D01*
X68835219Y-53224742D02*
X68835219Y-53319980D01*
X68835219Y-53319980D02*
X68787600Y-53462837D01*
X68787600Y-53462837D02*
X68692361Y-53558075D01*
X68692361Y-53558075D02*
X68597123Y-53605694D01*
X68597123Y-53605694D02*
X68406647Y-53653313D01*
X68406647Y-53653313D02*
X68263790Y-53653313D01*
X68263790Y-53653313D02*
X68073314Y-53605694D01*
X68073314Y-53605694D02*
X67978076Y-53558075D01*
X67978076Y-53558075D02*
X67882838Y-53462837D01*
X67882838Y-53462837D02*
X67835219Y-53319980D01*
X67835219Y-53319980D02*
X67835219Y-53224742D01*
X67835219Y-53224742D02*
X67882838Y-53081885D01*
X67882838Y-53081885D02*
X67930457Y-53034266D01*
X67930457Y-52653313D02*
X67882838Y-52605694D01*
X67882838Y-52605694D02*
X67835219Y-52510456D01*
X67835219Y-52510456D02*
X67835219Y-52272361D01*
X67835219Y-52272361D02*
X67882838Y-52177123D01*
X67882838Y-52177123D02*
X67930457Y-52129504D01*
X67930457Y-52129504D02*
X68025695Y-52081885D01*
X68025695Y-52081885D02*
X68120933Y-52081885D01*
X68120933Y-52081885D02*
X68263790Y-52129504D01*
X68263790Y-52129504D02*
X68835219Y-52700932D01*
X68835219Y-52700932D02*
X68835219Y-52081885D01*
X58067080Y-63635416D02*
X58114700Y-63683035D01*
X58114700Y-63683035D02*
X58162319Y-63825892D01*
X58162319Y-63825892D02*
X58162319Y-63921130D01*
X58162319Y-63921130D02*
X58114700Y-64063987D01*
X58114700Y-64063987D02*
X58019461Y-64159225D01*
X58019461Y-64159225D02*
X57924223Y-64206844D01*
X57924223Y-64206844D02*
X57733747Y-64254463D01*
X57733747Y-64254463D02*
X57590890Y-64254463D01*
X57590890Y-64254463D02*
X57400414Y-64206844D01*
X57400414Y-64206844D02*
X57305176Y-64159225D01*
X57305176Y-64159225D02*
X57209938Y-64063987D01*
X57209938Y-64063987D02*
X57162319Y-63921130D01*
X57162319Y-63921130D02*
X57162319Y-63825892D01*
X57162319Y-63825892D02*
X57209938Y-63683035D01*
X57209938Y-63683035D02*
X57257557Y-63635416D01*
X58162319Y-62683035D02*
X58162319Y-63254463D01*
X58162319Y-62968749D02*
X57162319Y-62968749D01*
X57162319Y-62968749D02*
X57305176Y-63063987D01*
X57305176Y-63063987D02*
X57400414Y-63159225D01*
X57400414Y-63159225D02*
X57448033Y-63254463D01*
%TO.C,SW1*%
X61837200Y-80011200D02*
G75*
G03*
X61837200Y-80011200I-1000000J0D01*
G01*
X58237200Y-77411200D02*
X63437200Y-77411200D01*
X58237200Y-82611200D02*
X58237200Y-77411200D01*
X63437200Y-82611200D02*
X58237200Y-82611200D01*
X63437200Y-77411200D02*
X63437200Y-82611200D01*
D11*
%TO.C,R3*%
X62155400Y-52655736D02*
X62155400Y-53109864D01*
X63625400Y-52655736D02*
X63625400Y-53109864D01*
%TO.C,Y1*%
X72275600Y-85707150D02*
X72275600Y-81707150D01*
X68975600Y-85707150D02*
X72275600Y-85707150D01*
D10*
%TO.C,USB1*%
X72112500Y-41512500D02*
X72112500Y-46962500D01*
X64412500Y-41512500D02*
X64412500Y-46962500D01*
X72112500Y-46962500D02*
X64412500Y-46962500D01*
%TO.C,U1*%
X63737500Y-58293750D02*
X63737500Y-58868750D01*
X74087500Y-58293750D02*
X73412500Y-58293750D01*
X63737500Y-58868750D02*
X62462500Y-58868750D01*
X74087500Y-68643750D02*
X73412500Y-68643750D01*
X63737500Y-58293750D02*
X64412500Y-58293750D01*
X74087500Y-58293750D02*
X74087500Y-58968750D01*
X74087500Y-68643750D02*
X74087500Y-67968750D01*
X63737500Y-68643750D02*
X64412500Y-68643750D01*
X63737500Y-68643750D02*
X63737500Y-67968750D01*
D11*
%TO.C,R4*%
X61595364Y-73937800D02*
X61141236Y-73937800D01*
X61595364Y-72467800D02*
X61141236Y-72467800D01*
%TO.C,R2*%
X60374200Y-52653836D02*
X60374200Y-53107964D01*
X58904200Y-52653836D02*
X58904200Y-53107964D01*
%TO.C,R1*%
X78378750Y-57019564D02*
X78378750Y-56565436D01*
X76908750Y-57019564D02*
X76908750Y-56565436D01*
%TO.C,F1*%
X69448000Y-52309136D02*
X69448000Y-53513264D01*
X71268000Y-52309136D02*
X71268000Y-53513264D01*
%TO.C,D9*%
X135937500Y-89672500D02*
X135937500Y-85662500D01*
X133937500Y-89672500D02*
X133937500Y-85662500D01*
X133937500Y-89672500D02*
X135937500Y-89672500D01*
%TO.C,D8*%
X116887500Y-89672500D02*
X116887500Y-85662500D01*
X114887500Y-89672500D02*
X114887500Y-85662500D01*
X114887500Y-89672500D02*
X116887500Y-89672500D01*
%TO.C,D7*%
X97837500Y-89672500D02*
X97837500Y-85662500D01*
X95837500Y-89672500D02*
X95837500Y-85662500D01*
X95837500Y-89672500D02*
X97837500Y-89672500D01*
%TO.C,D6*%
X135937500Y-70622500D02*
X135937500Y-66612500D01*
X133937500Y-70622500D02*
X133937500Y-66612500D01*
X133937500Y-70622500D02*
X135937500Y-70622500D01*
%TO.C,D5*%
X116887500Y-70622500D02*
X116887500Y-66612500D01*
X114887500Y-70622500D02*
X114887500Y-66612500D01*
X114887500Y-70622500D02*
X116887500Y-70622500D01*
%TO.C,D4*%
X97837500Y-70560000D02*
X97837500Y-66550000D01*
X95837500Y-70560000D02*
X95837500Y-66550000D01*
X95837500Y-70560000D02*
X97837500Y-70560000D01*
%TO.C,D3*%
X135937500Y-51572500D02*
X135937500Y-47562500D01*
X133937500Y-51572500D02*
X133937500Y-47562500D01*
X133937500Y-51572500D02*
X135937500Y-51572500D01*
%TO.C,D2*%
X116887500Y-51572500D02*
X116887500Y-47562500D01*
X114887500Y-51572500D02*
X114887500Y-47562500D01*
X114887500Y-51572500D02*
X116887500Y-51572500D01*
%TO.C,D1*%
X97837500Y-51572500D02*
X97837500Y-47562500D01*
X95837500Y-51572500D02*
X95837500Y-47562500D01*
X95837500Y-51572500D02*
X97837500Y-51572500D01*
%TO.C,C7*%
X70888452Y-80167150D02*
X70365948Y-80167150D01*
X70888452Y-78697150D02*
X70365948Y-78697150D01*
%TO.C,C6*%
X70939252Y-87428400D02*
X70416748Y-87428400D01*
X70939252Y-88898400D02*
X70416748Y-88898400D01*
%TO.C,C5*%
X78408200Y-51976348D02*
X78408200Y-52498852D01*
X76938200Y-51976348D02*
X76938200Y-52498852D01*
%TO.C,C4*%
X76425652Y-72874200D02*
X75903148Y-72874200D01*
X76425652Y-74344200D02*
X75903148Y-74344200D01*
%TO.C,C3*%
X60120200Y-68216452D02*
X60120200Y-67693948D01*
X58650200Y-68216452D02*
X58650200Y-67693948D01*
%TO.C,C2*%
X67435400Y-52606348D02*
X67435400Y-53128852D01*
X65965400Y-52606348D02*
X65965400Y-53128852D01*
%TO.C,C1*%
X58652500Y-63730002D02*
X58652500Y-63207498D01*
X60122500Y-63730002D02*
X60122500Y-63207498D01*
%TD*%
M02*
